<svg width="32" height="32" fill="none" xmlns="http://www.w3.org/2000/svg"><path d="M10.4 2.667h11.2a7.739 7.739 0 017.733 7.733v11.2a7.733 7.733 0 01-7.733 7.733H10.4A7.739 7.739 0 012.667 21.6V10.4A7.733 7.733 0 0110.4 2.666zm-.267 2.666a4.8 4.8 0 00-4.8 4.8v11.733c0 2.654 2.147 4.8 4.8 4.8h11.734a4.8 4.8 0 004.8-4.8V10.133c0-2.653-2.147-4.8-4.8-4.8H10.133zm12.867 2a1.667 1.667 0 110 3.334 1.667 1.667 0 010-3.334zm-7 2a6.666 6.666 0 110 13.333 6.666 6.666 0 010-13.333zM16 12a4 4 0 100 8 4 4 0 000-8z" fill="#00BFC6"/></svg>