<svg width="32" height="32" fill="none" xmlns="http://www.w3.org/2000/svg"><path d="M13.333 20l6.92-4-6.92-4v8zM28.747 9.56c.173.627.293 1.466.373 2.533a32.09 32.09 0 01.133 2.787l.08 1.12c0 2.92-.213 5.067-.586 6.44-.334 1.2-1.107 1.973-2.307 2.306-.627.174-1.773.294-3.533.374-1.734.093-3.32.133-4.787.133l-2.12.08c-5.587 0-9.067-.213-10.44-.586-1.2-.334-1.973-1.107-2.307-2.307-.173-.627-.293-1.467-.373-2.534a32.083 32.083 0 01-.133-2.786L2.667 16c0-2.92.213-5.067.586-6.44.334-1.2 1.107-1.974 2.307-2.307.627-.173 1.773-.293 3.533-.373a88.86 88.86 0 014.787-.133l2.12-.08c5.587 0 9.067.213 10.44.586 1.2.333 1.973 1.107 2.307 2.307z" fill="#00BFC6"/></svg>