<svg width="32" height="32" fill="none" xmlns="http://www.w3.org/2000/svg"><path d="M29 16.088V16a13.012 13.012 0 00-4.788-10.075l-.075-.062-.087-.063a13 13 0 00-13.675-1.525l-.162.088a13.05 13.05 0 00-6.963 9.075v.025A12.962 12.962 0 008.2 26.388l.163.125h.012a13 13 0 0011.913 1.75l.137-.05A13.025 13.025 0 0029 16.113v-.025zm-2.05-1.063L26 15a21.26 21.26 0 00-5.488.725A20.772 20.772 0 0018.825 12 20.888 20.888 0 0023.6 8.05a10.95 10.95 0 013.35 6.975zm-4.912-8.212a18.802 18.802 0 01-4.288 3.5 21.31 21.31 0 00-4.838-4.875 11.012 11.012 0 019.126 1.375zM10.7 6.363a19.099 19.099 0 015.263 4.9A19.162 19.162 0 018 13a19.094 19.094 0 01-2.537-.175A11.063 11.063 0 0110.7 6.363zM5 16c0-.412.025-.812.063-1.2.973.13 1.955.196 2.937.2a20.926 20.926 0 009.063-2.05 18.788 18.788 0 011.537 3.388c-1.06.404-2.088.889-3.075 1.45a21.137 21.137 0 00-6.875 6.387A10.988 10.988 0 015 16zm5.25 9.375a18.9 18.9 0 018.9-7.1c.305 1.375.46 2.78.463 4.188a19.16 19.16 0 01-.438 4.062A10.665 10.665 0 0116 27a11 11 0 01-5.75-1.625zm11.137.213a21.445 21.445 0 00-.325-7.938A19.237 19.237 0 0126 17l.95.025a11.013 11.013 0 01-5.563 8.563z" fill="#00BFC6"/></svg>