<svg width="32" height="32" viewBox="0 0 32 32" fill="none" xmlns="http://www.w3.org/2000/svg">
<path d="M29 16.0877V16.0002C28.9988 14.071 28.5686 12.1662 27.7406 10.4237C26.9126 8.68118 25.7075 7.1446 24.2125 5.92518L24.1375 5.86268L24.05 5.80018C22.1415 4.29208 19.8482 3.34968 17.4308 3.0801C15.0134 2.81051 12.5688 3.22456 10.375 4.27518L10.2125 4.36268C8.43906 5.24735 6.89041 6.52433 5.68403 8.09672C4.47766 9.66912 3.64527 11.4956 3.25001 13.4377V13.4627C2.76956 15.8646 2.97954 18.3536 3.85562 20.6411C4.73169 22.9286 6.238 24.9211 8.20001 26.3877L8.36251 26.5127H8.37501C10.0724 27.7433 12.0422 28.5452 14.1164 28.8499C16.1907 29.1547 18.3079 28.9532 20.2875 28.2627L20.425 28.2127C22.9155 27.3075 25.0706 25.6643 26.6028 23.5023C28.1349 21.3403 28.9712 18.7624 29 16.1127V16.0877ZM26.95 15.0252L26 15.0002C24.1471 15.0017 22.3023 15.2454 20.5125 15.7252C20.0739 14.431 19.5086 13.1833 18.825 12.0002C20.6042 10.9283 22.2136 9.59694 23.6 8.05018C25.5283 9.89001 26.7194 12.37 26.95 15.0252ZM22.0375 6.81268C20.7888 8.18448 19.344 9.36392 17.75 10.3127C16.4117 8.43684 14.778 6.79047 12.9125 5.43768C14.4424 4.99316 16.0506 4.8859 17.626 5.12329C19.2014 5.36068 20.7065 5.93707 22.0375 6.81268ZM10.7 6.36268C12.7486 7.64811 14.5344 9.3109 15.9625 11.2627C13.4636 12.4061 10.7481 12.9987 8.00001 13.0002C7.15123 12.9983 6.30351 12.9399 5.46251 12.8252C6.30111 10.0717 8.17991 7.75343 10.7 6.36268ZM5.00001 16.0002C5.00001 15.5877 5.02501 15.1877 5.06251 14.8002C6.03641 14.9294 7.01758 14.9962 8.00001 15.0002C11.1363 15.0046 14.2335 14.304 17.0625 12.9502C17.6858 14.0257 18.2008 15.1604 18.6 16.3377C17.5395 16.7418 16.5115 17.2265 15.525 17.7877C12.7837 19.3748 10.4341 21.5578 8.65001 24.1752C7.50187 23.1451 6.58348 21.8848 5.95461 20.4763C5.32575 19.0678 5.00049 17.5427 5.00001 16.0002ZM10.25 25.3752C12.4164 22.15 15.5241 19.6708 19.15 18.2752C19.4547 19.6503 19.6097 21.0543 19.6125 22.4627C19.6119 23.8286 19.4652 25.1905 19.175 26.5252C18.1467 26.8428 17.0763 27.003 16 27.0002C13.9701 26.9994 11.98 26.437 10.25 25.3752ZM21.3875 25.5877C21.5379 24.5528 21.6131 23.5084 21.6125 22.4627C21.6115 20.8429 21.427 19.2284 21.0625 17.6502C22.6733 17.2206 24.333 17.0021 26 17.0002L26.95 17.0252C26.783 18.7954 26.1898 20.4989 25.2211 21.9901C24.2524 23.4812 22.9371 24.7156 21.3875 25.5877Z" fill="#00BFC6"/>
</svg>
