<svg width="50" height="50" viewBox="0 0 50 50" fill="none" xmlns="http://www.w3.org/2000/svg">
<path d="M12.6458 20.4167C12.2292 20.8333 12.2292 21.4792 12.6458 21.8958C13.7082 22.9598 14.3518 24.3708 14.4589 25.8705C14.566 27.3702 14.1295 28.8583 13.2292 30.0625C12.9167 30.4792 12.9792 31.0417 13.3333 31.4167C13.7917 31.875 14.5208 31.8125 14.9167 31.3125C16.0048 29.8489 16.5855 28.0701 16.5705 26.2464C16.5554 24.4227 15.9455 22.6538 14.8333 21.2083L30.7083 5.33333C31.7292 4.3125 33.375 4.3125 34.3958 5.33333C35.4167 6.35417 35.4167 8 34.3958 9.02083L23.7083 19.7083C23.2917 20.125 23.2917 20.7708 23.7083 21.1875C24.125 21.6042 24.7708 21.6042 25.1875 21.1875L38.8125 7.5625C39.8333 6.54167 41.4792 6.54167 42.5 7.5625C43.5208 8.58333 43.5208 10.2292 42.5 11.25L28.875 24.875C28.4583 25.2917 28.4583 25.9375 28.875 26.3542C29.2917 26.7708 29.9375 26.7708 30.3542 26.3542L41.7708 14.9375C42.7917 13.9167 44.4375 13.9167 45.4583 14.9375C46.4792 15.9583 46.4792 17.6042 45.4583 18.625L32.5625 31.5208C32.1458 31.9375 32.1458 32.5833 32.5625 33C32.9792 33.4167 33.625 33.4167 34.0417 33L42.5208 24.5208C42.7627 24.2783 43.0501 24.0859 43.3665 23.9546C43.6829 23.8233 44.022 23.7558 44.3646 23.7558C44.7071 23.7558 45.0463 23.8233 45.3627 23.9546C45.679 24.0859 45.9664 24.2783 46.2083 24.5208C47.2292 25.5417 47.2292 27.1875 46.2083 28.2083L31.4792 42.9375C24.7708 49.6458 13.875 49.6458 7.16666 42.9375C0.458323 36.2292 0.458323 25.3333 7.16666 18.625L16.75 9.04167C16.9919 8.79915 17.2793 8.60674 17.5956 8.47546C17.912 8.34417 18.2512 8.27659 18.5937 8.27659C18.9363 8.27659 19.2755 8.34417 19.5918 8.47546C19.9082 8.60674 20.1956 8.79915 20.4375 9.04167C21.4583 10.0625 21.4583 11.7083 20.4375 12.7292L12.6458 20.4167ZM14.5833 3.75C14.5833 2.89583 13.875 2.1875 13.0208 2.1875C12.9375 2.1875 12.875 2.1875 12.7917 2.20833C7.31249 3 2.99999 7.33333 2.20832 12.7917C2.20832 12.8542 2.18749 12.9375 2.18749 13.0208C2.18749 13.875 2.89582 14.5833 3.74999 14.5833C4.54166 14.5833 5.18749 14 5.29166 13.25C5.58011 11.2472 6.50922 9.39165 7.94001 7.96086C9.37081 6.53007 11.2264 5.60095 13.2292 5.3125C14 5.1875 14.5833 4.54167 14.5833 3.75ZM35.4167 46.25C35.4167 47.1042 36.125 47.8125 36.9792 47.8125C37.0625 47.8125 37.125 47.8125 37.2083 47.7917C42.6875 47 47 42.6667 47.7917 37.2083C47.7917 37.1458 47.8125 37.0625 47.8125 36.9792C47.8125 36.125 47.1042 35.4167 46.25 35.4167C45.4583 35.4167 44.8125 36 44.7083 36.75C44.4199 38.7528 43.4908 40.6083 42.06 42.0391C40.6292 43.4699 38.7736 44.399 36.7708 44.6875C36 44.8125 35.4167 45.4583 35.4167 46.25Z" fill="#2AF1F7"/>
</svg>
